<?xml version="1.0" encoding="UTF-8"?>
<svg version="1.1" xmlns="http://www.w3.org/2000/svg" width="500" height="500">
<path d="M0 0 C11.77878397 5.99155344 23.26752352 9.20304418 36.32128906 11.0300293 C51.15619809 13.10972808 63.19252695 15.76948067 73.23144531 27.66137695 C76.39226748 32.05249553 78.68781128 36.9517576 81.11990356 41.77047729 C86.54717739 52.45060103 91.80176767 61.88123689 100.88671875 69.9609375 C103.3092198 72.16289792 105.72304744 74.37430554 108.13671875 76.5859375 C108.73597168 77.13137207 109.33522461 77.67680664 109.95263672 78.23876953 C114.74421781 82.66413215 118.65679856 87.25873273 121.88671875 92.9609375 C122.2425 93.55390625 122.59828125 94.146875 122.96484375 94.7578125 C127.72421091 104.53614866 125.12602075 117.93867947 123.03808594 128.16137695 C119.94027185 143.34999675 121.68631062 157.01586478 124.4609375 172.078125 C126.19749632 183.83574344 125.90091297 193.96535066 118.88671875 203.9609375 C113.28007586 211.12670207 106.62910552 216.91697496 99.73828125 222.79296875 C91.31160533 230.52481349 86.2044649 240.55988159 80.98046875 250.59765625 C74.97446098 262.13192116 68.52787447 272.46847803 55.82421875 277.0703125 C47.8868852 279.37355661 39.84808827 280.66280436 31.69921875 281.9609375 C17.94654607 284.18719946 7.35349279 287.87496125 -4.64746094 294.98852539 C-16.00593562 301.57412079 -27.93748769 303.80094401 -40.96484375 301.4453125 C-48.03730611 299.36637544 -54.45142205 295.80182809 -60.98828125 292.4609375 C-74.4870396 285.59027164 -86.95024931 282.57850778 -101.88208008 280.52954102 C-115.51492621 278.56780177 -126.46156051 274.88985508 -135.48046875 264.20239258 C-139.59632712 258.55231846 -142.48936934 252.04772819 -145.63867188 245.828125 C-150.03368106 237.38262023 -155.02329125 228.35426416 -163.11328125 222.9609375 C-163.67015625 222.2390625 -164.22703125 221.5171875 -164.80078125 220.7734375 C-166.75048093 218.40218114 -168.52579788 216.71295403 -170.86328125 214.7734375 C-178.52074868 208.21807286 -185.44125075 200.12284703 -187.11328125 189.9609375 C-187.86586528 180.14033284 -186.75234707 171.0026164 -185.05078125 161.3359375 C-183.00471704 149.48245231 -183.29802835 139.84663531 -185.26708984 127.99536133 C-185.46939209 126.77175903 -185.46939209 126.77175903 -185.67578125 125.5234375 C-185.80936035 124.71608154 -185.94293945 123.90872559 -186.08056641 123.0769043 C-188.05628876 110.63135974 -188.80264625 99.130915 -181.3125 88.375 C-176.19257726 81.75389603 -170.46701244 75.94854644 -164.11328125 70.5234375 C-153.62193298 61.31838481 -147.71266176 50.01867978 -141.45703125 37.69921875 C-135.63701438 26.36635257 -128.34751129 18.24863494 -116.11328125 13.9609375 C-109.27973745 12.23794996 -102.36997275 11.25989353 -95.39453125 10.328125 C-81.62494634 8.43463304 -70.28188392 4.12889869 -57.92578125 -2.1640625 C-36.32822126 -13.13478524 -20.97624917 -10.72509476 0 0 Z " fill="#FBF1F7" transform="translate(281.11328125,104.0390625)"/>
<path d="M0 0 C11.77878397 5.99155344 23.26752352 9.20304418 36.32128906 11.0300293 C51.15619809 13.10972808 63.19252695 15.76948067 73.23144531 27.66137695 C76.39226748 32.05249553 78.68781128 36.9517576 81.11990356 41.77047729 C86.54717739 52.45060103 91.80176767 61.88123689 100.88671875 69.9609375 C103.3092198 72.16289792 105.72304744 74.37430554 108.13671875 76.5859375 C108.73597168 77.13137207 109.33522461 77.67680664 109.95263672 78.23876953 C114.74421781 82.66413215 118.65679856 87.25873273 121.88671875 92.9609375 C122.2425 93.55390625 122.59828125 94.146875 122.96484375 94.7578125 C127.72421091 104.53614866 125.12602075 117.93867947 123.03808594 128.16137695 C119.94027185 143.34999675 121.68631062 157.01586478 124.4609375 172.078125 C126.19749632 183.83574344 125.90091297 193.96535066 118.88671875 203.9609375 C113.28007586 211.12670207 106.62910552 216.91697496 99.73828125 222.79296875 C91.31160533 230.52481349 86.2044649 240.55988159 80.98046875 250.59765625 C74.97446098 262.13192116 68.52787447 272.46847803 55.82421875 277.0703125 C47.8868852 279.37355661 39.84808827 280.66280436 31.69921875 281.9609375 C17.94654607 284.18719946 7.35349279 287.87496125 -4.64746094 294.98852539 C-16.00593562 301.57412079 -27.93748769 303.80094401 -40.96484375 301.4453125 C-48.03730611 299.36637544 -54.45142205 295.80182809 -60.98828125 292.4609375 C-74.4870396 285.59027164 -86.95024931 282.57850778 -101.88208008 280.52954102 C-115.51492621 278.56780177 -126.46156051 274.88985508 -135.48046875 264.20239258 C-139.59632712 258.55231846 -142.48936934 252.04772819 -145.63867188 245.828125 C-150.03368106 237.38262023 -155.02329125 228.35426416 -163.11328125 222.9609375 C-163.67015625 222.2390625 -164.22703125 221.5171875 -164.80078125 220.7734375 C-166.75048093 218.40218114 -168.52579788 216.71295403 -170.86328125 214.7734375 C-178.52074868 208.21807286 -185.44125075 200.12284703 -187.11328125 189.9609375 C-187.86586528 180.14033284 -186.75234707 171.0026164 -185.05078125 161.3359375 C-183.00471704 149.48245231 -183.29802835 139.84663531 -185.26708984 127.99536133 C-185.46939209 126.77175903 -185.46939209 126.77175903 -185.67578125 125.5234375 C-185.80936035 124.71608154 -185.94293945 123.90872559 -186.08056641 123.0769043 C-188.05628876 110.63135974 -188.80264625 99.130915 -181.3125 88.375 C-176.19257726 81.75389603 -170.46701244 75.94854644 -164.11328125 70.5234375 C-153.62193298 61.31838481 -147.71266176 50.01867978 -141.45703125 37.69921875 C-135.63701438 26.36635257 -128.34751129 18.24863494 -116.11328125 13.9609375 C-109.27973745 12.23794996 -102.36997275 11.25989353 -95.39453125 10.328125 C-81.62494634 8.43463304 -70.28188392 4.12889869 -57.92578125 -2.1640625 C-36.32822126 -13.13478524 -20.97624917 -10.72509476 0 0 Z M-150.11328125 75.9609375 C-166.37460628 89.65418412 -166.37460628 89.65418412 -173.32421875 108.94140625 C-173.51405555 115.40315882 -172.96034964 121.40041014 -171.61328125 127.7109375 C-168.94085219 140.52521149 -169.68772006 152.67818585 -172.02783203 165.47851562 C-174.10545388 177.09280415 -174.54557933 187.62091762 -168.11328125 197.9609375 C-162.50353331 205.29054193 -155.6992649 211.65613058 -148.5625 217.47265625 C-141.13061074 225.02307644 -136.45091499 234.59807725 -131.65234375 243.92578125 C-125.91219529 254.78346947 -119.86284463 261.7005485 -108.11328125 265.9609375 C-102.82017219 267.26638823 -97.50016722 268.14470413 -92.11328125 268.9609375 C-77.07561783 271.27886785 -64.04901763 276.21991498 -50.56640625 283.24487305 C-40.95048541 288.22755574 -31.41577928 289.81677329 -20.80859375 287.12109375 C-14.66346645 284.84540446 -8.8833497 281.86184178 -3.05078125 278.8984375 C8.43322447 273.08041281 19.35959888 270.33122198 32.08398438 268.44238281 C47.25069421 266.145145 56.96449267 261.83977204 66.31689453 249.28417969 C69.00057862 245.31249418 70.98028933 241.01284734 73.07421875 236.7109375 C79.35915996 224.30914197 87.4502537 216.09086406 97.73779297 206.89868164 C101.99403554 203.02585266 105.19396697 199.03464874 107.88671875 193.9609375 C108.22316406 193.34089844 108.55960937 192.72085938 108.90625 192.08203125 C112.67654825 183.83557982 111.36818735 174.57205915 109.38671875 166.0234375 C106.37951096 152.1330015 107.21013003 137.99158925 109.8034668 124.10424805 C111.69453079 113.92577227 111.9401861 105.29041569 106.88671875 95.9609375 C105.91513906 94.60675483 104.92243942 93.26671714 103.88671875 91.9609375 C100.73324625 92.74344905 100.73324625 92.74344905 98.69921875 95.3359375 C95.91481765 97.93471186 95.30630863 98.2184493 91.88671875 99.0234375 C88.76164921 100.02792414 88.02920216 100.70409241 86.40234375 103.63671875 C85.57754102 105.72163677 84.80366254 107.82764966 84.08984375 109.953125 C82.2037351 114.66839663 80.02639709 117.33733992 75.57421875 119.7734375 C70.03260933 121.55802358 65.96859519 121.66558735 60.63671875 119.3359375 C56.85009777 117.29585875 55.37202483 115.04552921 53.88671875 110.9609375 C53.22671875 110.9609375 52.56671875 110.9609375 51.88671875 110.9609375 C50.48024448 112.69017838 50.48024448 112.69017838 49.07421875 114.8359375 C45.08987001 120.26041229 45.08987001 120.26041229 40.88671875 120.9609375 C36.72387793 121.00341547 33.70119693 120.43152489 30.07421875 118.3359375 C26.28696064 114.22405727 24.71461568 109.42505721 23.88671875 103.9609375 C23.22671875 103.9609375 22.56671875 103.9609375 21.88671875 103.9609375 C20.0660721 106.6208243 18.47075168 109.38671527 16.8359375 112.1640625 C14.10656567 116.08035554 10.82112308 118.33800128 6.88671875 120.9609375 C1.59335692 121.49027368 -2.11808623 121.2020138 -6.640625 118.296875 C-10.36841424 114.91516699 -11.38589973 109.76165554 -12.11328125 104.9609375 C-15.42424237 108.0172093 -17.96362052 111.39579282 -20.55078125 115.05859375 C-23.41264282 118.54291021 -25.9859885 120.31461939 -30.48828125 120.8359375 C-34.84155759 121.17905288 -37.46107776 120.50898645 -41.11328125 117.9609375 C-45.21947097 113.97206748 -46.56985932 109.32783649 -48.11328125 103.9609375 C-50.55067617 106.21805173 -52.2332659 108.58566966 -53.98828125 111.3984375 C-56.75432259 115.63006791 -59.53326642 118.67093009 -64.11328125 120.9609375 C-69.09437384 121.33686902 -72.17001989 121.1374536 -76.11328125 117.9609375 C-77.92578125 115.2734375 -77.92578125 115.2734375 -79.11328125 112.9609375 C-79.81904297 113.57582031 -79.81904297 113.57582031 -80.5390625 114.203125 C-81.16167969 114.74195313 -81.78429687 115.28078125 -82.42578125 115.8359375 C-83.04066406 116.36960938 -83.65554687 116.90328125 -84.2890625 117.453125 C-87.96265357 120.48954074 -90.25641107 121.36143871 -95.05859375 121.203125 C-99.03502524 120.73442015 -101.87959613 119.37574537 -104.5234375 116.34375 C-106.72439069 113.35353371 -108.49716524 110.30335924 -110.11328125 106.9609375 C-110.64695313 107.63640625 -111.180625 108.311875 -111.73046875 109.0078125 C-117.48515328 115.89750402 -122.39684203 119.857187 -131.34765625 121.328125 C-134.66921393 121.540405 -136.99775785 121.01618782 -139.98828125 119.5859375 C-143.08304483 115.76299425 -143.50021299 111.7556803 -144.11328125 106.9609375 C-141.10000559 108.46757533 -140.50271507 110.99260161 -139.11328125 113.9609375 C-136.73953264 114.29519485 -136.73953264 114.29519485 -134.11328125 113.9609375 C-130.24612945 109.95567313 -129.75779442 105.71087116 -129.8359375 100.37109375 C-130.47729189 94.79763379 -132.99749633 91.02821003 -136.98828125 87.2109375 C-139.03283604 85.73885805 -141.11628845 84.31901289 -143.23828125 82.9609375 C-146.19485473 80.90419073 -147.9378497 78.7992688 -150.11328125 75.9609375 Z " fill="#F978A8" transform="translate(281.11328125,104.0390625)"/>
<path d="M0 0 C11.5460263 -0.47368313 20.35503496 3.98048975 30.35058594 9.19335938 C40.35717569 14.37743488 49.69365595 17.04587947 60.859375 18.75 C88.65332707 23.07762974 88.65332707 23.07762974 97.484375 35.07421875 C100.73779743 40.24029772 103.5814669 45.5865086 106.40527344 50.99316406 C112.49059138 62.63184612 120.24259275 73.77631183 131.359375 81.1875 C131.0278121 84.2820871 130.33054906 85.21554686 128.046875 87.4375 C125.359375 89.1875 125.359375 89.1875 121.359375 89.1875 C120.369375 83.2475 120.369375 83.2475 119.359375 77.1875 C116.719375 76.8575 114.079375 76.5275 111.359375 76.1875 C108.67323507 80.2167099 108.79064411 83.45365172 109.359375 88.1875 C110.71338145 90.91731832 110.71338145 90.91731832 112.359375 93.1875 C113.95360175 97.40081354 112.98033702 100.31481263 111.30859375 104.31640625 C110.00375474 106.88849632 108.72123031 108.52030801 106.359375 110.1875 C103.796875 110.75 103.796875 110.75 101.359375 110.1875 C97.15021344 104.62250274 97.66724254 98.86774473 98.359375 92.1875 C100.31146747 84.21369855 104.41526431 77.84548764 111.234375 73.25 C111.935625 72.899375 112.636875 72.54875 113.359375 72.1875 C113.029375 70.8675 112.699375 69.5475 112.359375 68.1875 C103.95500765 68.45430531 98.52548246 70.82851719 92.671875 76.953125 C88.47355576 82.50715149 86.56017956 88.93627712 84.6262207 95.54003906 C82.97323631 101.02177165 80.60857665 105.47747908 77.359375 110.1875 C75.709375 109.8575 74.059375 109.5275 72.359375 109.1875 C70.20852135 103.90500344 69.97607576 99.17849014 69.984375 93.5625 C69.98308594 92.6547583 69.98179687 91.7470166 69.98046875 90.81176758 C70.12931252 81.00414696 72.07271325 71.6914379 74.359375 62.1875 C82.279375 61.6925 82.279375 61.6925 90.359375 61.1875 C90.359375 59.8675 90.359375 58.5475 90.359375 57.1875 C86.069375 57.1875 81.779375 57.1875 77.359375 57.1875 C77.95557455 52.31853697 78.92914322 47.85959049 80.359375 43.1875 C74.44660702 44.28988047 71.19326783 45.25820922 67.359375 50.1875 C66.17390931 52.49150993 65.26720288 54.75069886 64.359375 57.1875 C59.409375 57.1875 54.459375 57.1875 49.359375 57.1875 C49.689375 58.5075 50.019375 59.8275 50.359375 61.1875 C53.989375 61.5175 57.619375 61.8475 61.359375 62.1875 C59.37419914 74.41996457 56.70846074 85.26077829 51.359375 96.5 C50.93213135 97.40113525 50.5048877 98.30227051 50.06469727 99.23071289 C46.03470668 107.4001161 46.03470668 107.4001161 42.359375 110.1875 C39.609375 110.4375 39.609375 110.4375 37.359375 110.1875 C34.77316917 105.27267857 35.02781092 100.41038689 35.046875 95 C35.03076172 94.10474609 35.01464844 93.20949219 34.99804688 92.28710938 C34.9938976 86.54036455 35.83221327 81.72119669 37.71411133 76.2878418 C38.506211 74.07575116 38.506211 74.07575116 38.359375 71.1875 C36.94186937 71.30259661 35.52536331 71.43003658 34.109375 71.5625 C32.92601562 71.66691406 32.92601562 71.66691406 31.71875 71.7734375 C29.10897816 72.23144382 27.50767717 72.61758687 25.359375 74.1875 C24.23449145 76.93969173 24.23449145 76.93969173 23.359375 80.1875 C22.30674868 82.6047424 21.23466824 84.99258905 20.109375 87.375 C19.80217529 88.02702393 19.49497559 88.67904785 19.1784668 89.35083008 C11.28838143 105.93768737 11.28838143 105.93768737 6.359375 110.1875 C3.796875 110.375 3.796875 110.375 1.359375 109.1875 C-3.15049582 100.97073537 -3.62674387 90.2810025 -1.640625 81.1875 C1.10488481 77.49452014 4.25365579 76.09587682 8.359375 74.1875 C15.36827582 68.79923435 20.58264368 60.51769397 23.359375 52.1875 C23.95826104 47.13974624 24.19390784 43.42665482 21.296875 39.125 C17.69393345 36.74859175 15.68684189 36.1141531 11.359375 36.1875 C3.43441147 38.53734384 -1.03037182 44.33455694 -5.203125 51.125 C-9.87105953 59.96555769 -12.32652807 69.88647647 -13.953125 79.6875 C-15.91546087 90.32245819 -21.21797225 100.51495668 -27.640625 109.1875 C-30.390625 110.0625 -30.390625 110.0625 -32.640625 110.1875 C-38.05329109 99.36216782 -32.40333883 81.20135469 -29.640625 70.1875 C-31.07739765 70.49472018 -32.51346088 70.80525926 -33.94921875 71.1171875 C-35.14889282 71.37604736 -35.14889282 71.37604736 -36.37280273 71.64013672 C-38.91465336 72.25363969 -41.25851687 73.11170923 -43.640625 74.1875 C-44.32125 73.383125 -45.001875 72.57875 -45.703125 71.75 C-49.25970552 68.64745104 -50.95128645 68.1875 -55.640625 68.1875 C-61.54229031 69.2002118 -65.25783405 72.08714129 -68.9765625 76.671875 C-71.56241675 80.58100678 -73.42951973 84.74263216 -75.28125 89.0390625 C-76.62529387 92.15199169 -78.09924598 95.16821051 -79.640625 98.1875 C-80.300625 98.1875 -80.960625 98.1875 -81.640625 98.1875 C-82.011875 97.011875 -82.383125 95.83625 -82.765625 94.625 C-86.19091434 85.67505044 -92.51681863 81.70383297 -100.640625 77.1875 C-103.640625 75.1875 -103.640625 75.1875 -104.265625 73.12890625 C-104.389375 72.34386719 -104.513125 71.55882812 -104.640625 70.75 C-105.20112998 67.2059737 -105.87422314 65.52541027 -108.640625 63.1875 C-108.06054688 62.16011719 -107.48046875 61.13273437 -106.8828125 60.07421875 C-106.31989502 59.07551758 -106.31989502 59.07551758 -105.74560547 58.05664062 C-104.92014875 56.59251175 -104.09363724 55.12897709 -103.26611328 53.66601562 C-100.9399028 49.54223758 -98.69701554 45.3902334 -96.515625 41.1875 C-91.40700425 31.86601666 -85.23486817 25.69996668 -75.03125 22.32421875 C-68.97449034 20.69290917 -62.8245504 19.69038564 -56.640625 18.6875 C-43.67302969 16.56445694 -33.13772933 13.24383533 -21.51220703 7.15673828 C-14.32562957 3.43501737 -8.10301558 0.57536205 0 0 Z " fill="#FCF0F7" transform="translate(247.640625,107.8125)"/>
<path d="M0 0 C2.6066814 1.81439541 3.34039601 3.10907691 5 6 C6.19355706 13.0287249 3.22045033 18.70668785 -0.625 24.41015625 C-3.99028521 28.8341041 -7.58244725 32.57273124 -11.79785156 36.16333008 C-17.80055799 41.05644733 -17.80055799 41.05644733 -20.25 48.1875 C-20.1675 49.445625 -20.085 50.70375 -20 52 C-19.70867187 51.43152344 -19.41734375 50.86304688 -19.1171875 50.27734375 C-14.86282756 42.26362801 -10.53618494 35.67939006 -2 32 C1.04155118 31.39511365 2.81841297 31.53058552 6 32 C8.5 33.75 8.5 33.75 10 37 C11.37003866 45.03756011 9.36148492 52.28796078 6.86743164 59.86035156 C5.31430078 64.59658739 4.48441714 69.03333227 4 74 C9.46941773 72.32878903 11.75868695 69.18737772 14.52734375 64.30859375 C14.99269531 63.36113281 15.45804687 62.41367187 15.9375 61.4375 C16.45441406 60.38949219 16.97132813 59.34148437 17.50390625 58.26171875 C18.94023814 55.13029021 20.16177867 51.97300211 21.375 48.75 C24.66561661 40.71795179 30.16395311 35.1519618 38.109375 31.6171875 C40.86027561 30.71916623 43.14627752 30.59232536 46 31 C46.66 31.66 47.32 32.32 48 33 C47.9375 35 47.9375 35 47 37 C45.33927151 37.68132451 43.672233 38.34742127 42 39 C40.87483915 40.83284443 40.87483915 40.83284443 40 43 C39.01 44.175625 39.01 44.175625 38 45.375 C34.04950206 50.56002854 33.67984563 55.84437555 33.75 62.1875 C33.74226563 62.89841797 33.73453125 63.60933594 33.7265625 64.34179688 C33.74070483 68.10012031 33.86599707 69.7989956 36 73 C38.87866256 73.13478935 38.87866256 73.13478935 42 72 C45.00184099 68.08170911 47 62.92407176 47 58 C45.18739868 55.77068176 45.18739868 55.77068176 43 54 C41.79809099 50.39427296 41.67329685 47.7897565 42 44 C44 41.0625 44 41.0625 46 39 C51.36825726 39.47717842 51.36825726 39.47717842 53.8125 41.5 C55.57131665 45.20277188 55.74864674 48.94367849 56 53 C59.45411499 52.29920746 59.45411499 52.29920746 63 51 C64.16974325 49.23572664 64.16974325 49.23572664 65 47 C70.2093938 34.57056918 70.2093938 34.57056918 75 32 C80.2987013 30.64935065 80.2987013 30.64935065 83 32 C83.625 34.0625 83.625 34.0625 84 36 C84.639375 35.360625 85.27875 34.72125 85.9375 34.0625 C89.95605622 31.3561254 93.18284334 30.67885622 98 31 C102.78939847 32.28167001 105.93199118 34.31696685 108.4375 38.625 C108.953125 39.73875 109.46875 40.8525 110 42 C110.33 42.66 110.66 43.32 111 44 C111.59439347 52.50439895 111.0854731 60.0291945 108 68 C113.71353251 62.28646749 116.81916195 55.74813278 120.265625 48.546875 C122 45 122 45 124 42 C125.32 42.33 126.64 42.66 128 43 C127.51702047 49.01712 126.24716555 53.57850046 123.5 58.9375 C123.14470215 59.63335205 122.7894043 60.3292041 122.42333984 61.04614258 C117.29112801 70.65531877 110.2924218 77.18294291 100 81 C94.48252474 82.33180437 88.11088005 83.50219073 82.83203125 80.953125 C80.37803614 79.23279853 78.35774278 77.71548556 77 75 C75.7227313 77.5545374 75.61557916 79.74925782 75.31640625 82.59375 C75.19330078 83.70621094 75.07019531 84.81867188 74.94335938 85.96484375 C74.6894976 88.32120174 74.43949559 90.67797876 74.19335938 93.03515625 C74.00676758 94.70384766 74.00676758 94.70384766 73.81640625 96.40625 C73.70756104 97.43041016 73.59871582 98.45457031 73.48657227 99.50976562 C73 102 73 102 71 104 C68.625 104 68.625 104 66 103 C56.84907178 91.30714727 61.6180987 73.76755922 63 60 C60.36 60.33 57.72 60.66 55 61 C54.95875 61.969375 54.9175 62.93875 54.875 63.9375 C53.97731574 70.24693795 49.84784821 75.32013799 45.25 79.5 C41.17546222 82.21635852 37.82101516 82.47162105 33 82 C27.08563284 80.1956168 24.56970501 77.79360387 21 73 C20.34 72.34 19.68 71.68 19 71 C18.55269531 71.54269531 18.10539062 72.08539063 17.64453125 72.64453125 C10.92258065 80.59907834 10.92258065 80.59907834 7 82 C3.83126061 82.17699265 1.04004319 81.92795326 -2 81 C-6.56207667 76.90582863 -7.82283778 72.16137908 -8.3125 66.1875 C-8.17099059 58.72609451 -6.40895413 51.30475622 -5 44 C-10.13887158 45.89385138 -11.31694615 49.87222231 -13.546875 54.57421875 C-17.15684673 63.08482414 -19.43946113 71.90370107 -21 81 C-25.671875 82.140625 -25.671875 82.140625 -28.625 80.875 C-33.32769556 77.16234561 -34.55327027 72.67563202 -36 67 C-36.56847656 67.67546875 -37.13695312 68.3509375 -37.72265625 69.046875 C-44.39107362 76.75062261 -49.55213604 81.37601317 -59.875 82.375 C-63.17583018 82.3503209 -64.88425269 81.71681707 -67.4375 79.625 C-70.94836844 76.02850062 -70.94836844 76.02850062 -71.09765625 73.0546875 C-71.06510417 71.03645833 -71.03255208 69.01822917 -71 67 C-70.34 67 -69.68 67 -69 67 C-68.01 68.98 -67.02 70.96 -66 73 C-64.35 73 -62.7 73 -61 73 C-57.87572894 67.92305953 -57.16931048 63.80493746 -58 58 C-59.75877931 50.9249105 -64.55752132 47.72341883 -70.44140625 43.859375 C-72.92294589 42.05599658 -74.43866885 40.62283021 -76 38 C-76.36363016 34.54551351 -76.58874122 32.10821876 -74.9375 29 C-71.86664787 27.41504406 -69.27813225 28.31963293 -66 29 C-65.89945313 29.65226562 -65.79890625 30.30453125 -65.6953125 30.9765625 C-64.8144087 35.06733492 -64.13808085 38.06587629 -60.8203125 40.7890625 C-58.24266169 42.25417101 -55.62644243 43.62481553 -53 45 C-46.7493691 49.12709603 -43.91886487 54.19379896 -41 61 C-37.06433119 54.98823406 -34.57447482 49.35609263 -33.4375 42.25 C-31.50143152 30.22976418 -28.08937142 19.07635991 -21 9 C-20.38318359 8.10861328 -20.38318359 8.10861328 -19.75390625 7.19921875 C-14.64188889 0.44465155 -8.32046039 -2.92382533 0 0 Z " fill="#FA7AAA" transform="translate(233,256)"/>
<path d="M0 0 C2.70567626 1.82339052 4.53728718 3.07457436 6 6 C7.33963903 14.51264298 4.55183037 20.91000907 0 28 C-5.02770803 34.60004368 -10.98059893 40.51826824 -18 45 C-18.66 45 -19.32 45 -20 45 C-19.91838805 48.3551079 -19.80561448 51.70849442 -19.6875 55.0625 C-19.65366211 56.47692383 -19.65366211 56.47692383 -19.61914062 57.91992188 C-19.39899472 63.66372859 -18.6479756 67.88152706 -16 73 C-13.11052811 72.67353353 -11.46830455 72.48441331 -9.41015625 70.35546875 C-4.833864 62.9936073 -0.93575011 55.37710658 2.5703125 47.44921875 C3.33988281 45.71091797 3.33988281 45.71091797 4.125 43.9375 C4.58132813 42.87402344 5.03765625 41.81054688 5.5078125 40.71484375 C7.08425167 37.8467149 8.15579554 36.57428291 11 35 C13.359375 34.48828125 13.359375 34.48828125 15.75 34.3125 C16.54921875 34.24675781 17.3484375 34.18101562 18.171875 34.11328125 C19.07679688 34.05720703 19.07679688 34.05720703 20 34 C21.16852985 37.40142955 20.80347544 39.23537892 19.578125 42.57421875 C17.80250549 48.0861219 17.61748206 53.06039302 17.75 58.8125 C17.75773437 60.18438477 17.75773437 60.18438477 17.765625 61.58398438 C17.81506607 65.83282673 17.92425663 69.86185818 19 74 C21.91686365 73.45732769 24.21361033 72.86163066 26.265625 70.61328125 C27.66095469 68.46912463 28.83396295 66.27815332 30 64 C30.56976563 62.92234375 31.13953125 61.8446875 31.7265625 60.734375 C35.84892417 52.62845913 38.34849794 44.67240083 40.17578125 35.77734375 C40.91132661 32.40638468 41.84052829 29.24550814 43 26 C39.37 26 35.74 26 32 26 C31.67 24.35 31.34 22.7 31 21 C35.95 21 40.9 21 46 21 C46.33 19.35 46.66 17.7 47 16 C49.38899667 11.73393451 51.45558273 8.9476074 56 7 C59.3125 6.8125 59.3125 6.8125 62 7 C61.40380045 11.86896303 60.43023178 16.32790951 59 21 C63.29 21 67.58 21 72 21 C72 22.32 72 23.64 72 25 C68.99686252 26.50156874 66.20932478 26.09281204 62.875 26.0625 C61.59367188 26.05347656 60.31234375 26.04445312 58.9921875 26.03515625 C57.51105469 26.01775391 57.51105469 26.01775391 56 26 C55.814375 27.60875 55.814375 27.60875 55.625 29.25 C55.33377072 31.68535212 54.98702625 34.06249187 54.48828125 36.46484375 C53.10802979 43.28778889 52.78411268 49.93576277 52.75 56.875 C52.740896 57.77887451 52.73179199 58.68274902 52.72241211 59.61401367 C52.7445372 64.47476013 53.10356363 68.43952207 55 73 C57.41341595 73.00434079 57.41341595 73.00434079 60 72 C61.8308287 69.14358071 61.8308287 69.14358071 63.125 65.5625 C63.38087891 64.92868408 63.63675781 64.29486816 63.90039062 63.6418457 C65.32457234 60.04086961 66.49790997 56.42470634 67.5 52.6875 C69.98166864 43.95145258 75.22096282 37.5988296 83 33 C86.75270566 31.3811858 89.9106706 30.54563007 94 31 C94.66 31.66 95.32 32.32 96 33 C95.859375 34.95703125 95.859375 34.95703125 95 37 C93.328125 38.38671875 93.328125 38.38671875 91.25 39.6875 C85.70096141 43.60271035 82.20550425 49.28361918 81 56 C80.88248945 58.16438027 80.82492851 60.33246771 80.8125 62.5 C80.79832031 63.6240625 80.78414062 64.748125 80.76953125 65.90625 C80.99029782 68.86976056 81.4539353 70.5067415 83 73 C85.33071879 73.41870553 85.33071879 73.41870553 88 73 C91.33152922 69.76365733 92.96690886 66.50803407 94 62 C93.77316833 58.89996716 93.2147847 57.30928997 91.4375 54.75 C89.39004563 50.83313077 89.40937003 47.33668031 90 43 C91.1875 40.4375 91.1875 40.4375 93 39 C95.4375 38.5 95.4375 38.5 98 39 C100.24432982 40.87027485 101.69443202 42.38886404 103 45 C103.13415472 47.6723621 103.04318541 50.32250488 103 53 C104.32 53 105.64 53 107 53 C106.67 54.98 106.34 56.96 106 59 C106.66 59.33 107.32 59.66 108 60 C105.525 60.495 105.525 60.495 103 61 C102.85304688 61.6290625 102.70609375 62.258125 102.5546875 62.90625 C100.89189967 69.25160125 98.75082803 74.36043258 94 79 C89.2572142 81.75943901 85.45000227 82.66929852 80 82 C75.4537451 80.36133141 71.29986002 78.45597878 69 74 C69 73.01 69 72.02 69 71 C68.34 71 67.68 71 67 71 C66.79375 71.721875 66.5875 72.44375 66.375 73.1875 C64.62225948 76.77265106 62.42690896 79.03745302 59 81 C54.99301218 82.30905578 51.77458393 82.26812521 47.75 80.875 C43.24178555 77.80121742 40.56877824 74.22926081 39 69 C38.875 66.1875 38.875 66.1875 39 64 C38.34 64 37.68 64 37 64 C36.73703125 64.73089844 36.4740625 65.46179688 36.203125 66.21484375 C33.40639498 72.68909215 28.43341267 78.98023487 22 82 C16.74687482 82.66706352 13.03573017 82.28083207 8.5390625 79.40625 C4.70949956 75.90715695 3.12416874 70.93752543 2 66 C1.34644531 66.99580078 1.34644531 66.99580078 0.6796875 68.01171875 C-7.37946359 79.96089298 -7.37946359 79.96089298 -13.1640625 81.62109375 C-18.2717221 82.44959372 -21.65839446 82.05885845 -26 79 C-30.31087019 74.68912981 -32.11036388 70.7683629 -34 65 C-34.52787109 65.97839844 -34.52787109 65.97839844 -35.06640625 66.9765625 C-38.64031439 73.30321973 -42.3575067 78.67875335 -49 82 C-54.70914192 82.54895595 -57.56776886 81.62637093 -62 78 C-63.875 75.75 -63.875 75.75 -65 74 C-67.31 76.31 -69.62 78.62 -72 81 C-73 79 -73 79 -73 75 C-73.94875 74.9175 -74.8975 74.835 -75.875 74.75 C-79 74 -79 74 -80.17578125 72.19921875 C-83.39461164 63.610586 -79.78054574 52.49007185 -76.5625 44.375 C-74.8265879 41.73641361 -73.88587124 40.32594084 -71 39 C-68.23041021 39.06379094 -65.74292311 39.49713076 -63 40 C-63.495 37.525 -63.495 37.525 -64 35 C-63.34 35.33 -62.68 35.66 -62 36 C-62 36.66 -62 37.32 -62 38 C-60.989375 37.34 -59.97875 36.68 -58.9375 36 C-55.21937109 33.84500284 -52.31084509 33.64809428 -48 34 C-48.44870079 38.63657484 -49.01616023 43.07916319 -50.03125 47.625 C-51.16183535 53.16270784 -51.22785518 58.4917007 -51.125 64.125 C-51.11597656 65.08148438 -51.10695312 66.03796875 -51.09765625 67.0234375 C-51.07439827 69.34923525 -51.04172213 71.67447294 -51 74 C-45.91713051 72.11477023 -44.03703632 70.08276224 -41.77539062 65.390625 C-41.45763672 64.68421875 -41.13988281 63.9778125 -40.8125 63.25 C-40.48314453 62.5590625 -40.15378906 61.868125 -39.81445312 61.15625 C-38.84958908 59.11526522 -37.9211586 57.06102034 -37 55 C-36.71084717 54.37649658 -36.42169434 53.75299316 -36.1237793 53.1105957 C-34.53881741 49.60536402 -33.61119412 46.50074711 -33.1875 42.6875 C-30.93832902 28.01258116 -25.80799119 11.459311 -13.6171875 2.0859375 C-8.84319686 -1.11978569 -5.62238652 -1.40559663 0 0 Z " fill="#F97AAA" transform="translate(266,144)"/>
<path d="M0 0 C2.70567626 1.82339052 4.53728718 3.07457436 6 6 C7.33963903 14.51264298 4.55183037 20.91000907 0 28 C-5.02770803 34.60004368 -10.98059893 40.51826824 -18 45 C-18.66 45 -19.32 45 -20 45 C-19.88880836 48.33394127 -19.75850266 51.66688349 -19.625 55 C-19.5940625 55.93457031 -19.563125 56.86914062 -19.53125 57.83203125 C-19.52568309 67.31833317 -19.52568309 67.31833317 -15.54492188 75.37304688 C-13.7246947 76.64701442 -13.7246947 76.64701442 -11 78 C-12.485 78.495 -12.485 78.495 -14 79 C-14.33 78.67 -14.66 78.34 -15 78 C-15.495 79.485 -15.495 79.485 -16 81 C-20.42023441 81.44202344 -22.47609866 81.34255088 -26.25 78.875 C-30.21767728 74.72697375 -31.90772832 70.24841031 -34 65 C-34.52787109 65.97839844 -34.52787109 65.97839844 -35.06640625 66.9765625 C-38.64031439 73.30321973 -42.3575067 78.67875335 -49 82 C-54.70914192 82.54895595 -57.56776886 81.62637093 -62 78 C-63.875 75.75 -63.875 75.75 -65 74 C-67.31 76.31 -69.62 78.62 -72 81 C-73 79 -73 79 -73 75 C-73.94875 74.9175 -74.8975 74.835 -75.875 74.75 C-79 74 -79 74 -80.17578125 72.19921875 C-83.39461164 63.610586 -79.78054574 52.49007185 -76.5625 44.375 C-74.8265879 41.73641361 -73.88587124 40.32594084 -71 39 C-68.23041021 39.06379094 -65.74292311 39.49713076 -63 40 C-63.495 37.525 -63.495 37.525 -64 35 C-63.34 35.33 -62.68 35.66 -62 36 C-62 36.66 -62 37.32 -62 38 C-60.989375 37.34 -59.97875 36.68 -58.9375 36 C-55.21937109 33.84500284 -52.31084509 33.64809428 -48 34 C-48.44870079 38.63657484 -49.01616023 43.07916319 -50.03125 47.625 C-51.16183535 53.16270784 -51.22785518 58.4917007 -51.125 64.125 C-51.11597656 65.08148438 -51.10695312 66.03796875 -51.09765625 67.0234375 C-51.07439827 69.34923525 -51.04172213 71.67447294 -51 74 C-45.91713051 72.11477023 -44.03703632 70.08276224 -41.77539062 65.390625 C-41.45763672 64.68421875 -41.13988281 63.9778125 -40.8125 63.25 C-40.48314453 62.5590625 -40.15378906 61.868125 -39.81445312 61.15625 C-38.84958908 59.11526522 -37.9211586 57.06102034 -37 55 C-36.71084717 54.37649658 -36.42169434 53.75299316 -36.1237793 53.1105957 C-34.53881741 49.60536402 -33.61119412 46.50074711 -33.1875 42.6875 C-30.93832902 28.01258116 -25.80799119 11.459311 -13.6171875 2.0859375 C-8.84319686 -1.11978569 -5.62238652 -1.40559663 0 0 Z " fill="#FB78A9" transform="translate(266,144)"/>
<path d="M0 0 C4.56575463 4.04691888 6.44998711 7.60591766 7.09765625 13.71875 C7.2825975 21.11640005 6.42224004 27.53421324 3.75 34.4375 C9.46353251 28.72396749 12.56916195 22.18563278 16.015625 14.984375 C17.75 11.4375 17.75 11.4375 19.75 8.4375 C21.07 8.7675 22.39 9.0975 23.75 9.4375 C23.26702047 15.45462 21.99716555 20.01600046 19.25 25.375 C18.89470215 26.07085205 18.5394043 26.7667041 18.17333984 27.48364258 C13.04112801 37.09281877 6.0424218 43.62044291 -4.25 47.4375 C-9.79730994 48.77650585 -16.13620045 49.91710688 -21.453125 47.390625 C-23.375 46.0625 -23.375 46.0625 -26.25 43.4375 C-26.25 42.7775 -26.25 42.1175 -26.25 41.4375 C-24.93 41.7675 -23.61 42.0975 -22.25 42.4375 C-22.415 41.550625 -22.58 40.66375 -22.75 39.75 C-24.30008704 28.20532192 -22.64642114 18.40005574 -19.25 7.4375 C-18.59 7.4375 -17.93 7.4375 -17.25 7.4375 C-16.92 6.1175 -16.59 4.7975 -16.25 3.4375 C-15.59 3.4375 -14.93 3.4375 -14.25 3.4375 C-14.58 1.7875 -14.91 0.1375 -15.25 -1.5625 C-10.00995179 -3.52751808 -4.84447879 -2.32907634 0 0 Z " fill="#F97AAA" transform="translate(337.25,289.5625)"/>
<path d="M0 0 C-0.44870079 4.63657484 -1.01616023 9.07916319 -2.03125 13.625 C-3.16183535 19.16270784 -3.22785518 24.4917007 -3.125 30.125 C-3.11597656 31.08148438 -3.10695312 32.03796875 -3.09765625 33.0234375 C-3.07439827 35.34923525 -3.04172213 37.67447294 -3 40 C2.21356285 38.10077353 4.00192435 35.94923795 6.2734375 31.14648438 C6.75683594 30.05303711 6.75683594 30.05303711 7.25 28.9375 C10.82952692 21.17047308 10.82952692 21.17047308 13 19 C13 21.31 13 23.62 13 26 C12.01 26.33 11.02 26.66 10 27 C10.495 28.98 10.495 28.98 11 31 C10.01 31.66 9.02 32.32 8 33 C8.28875 33.845625 8.5775 34.69125 8.875 35.5625 C9.036939 40.01582261 7.6277304 41.30096204 4.73828125 44.484375 C1.77336695 47.06951376 -0.45606715 47.93956302 -4.375 48.375 C-9.57575509 47.83699085 -12.56008074 45.72790311 -15.875 41.75 C-16.431875 40.88375 -16.431875 40.88375 -17 40 C-19.31 42.31 -21.62 44.62 -24 47 C-25 45 -25 45 -25 41 C-25.94875 40.9175 -26.8975 40.835 -27.875 40.75 C-31 40 -31 40 -32.17578125 38.19921875 C-35.39461164 29.610586 -31.78054574 18.49007185 -28.5625 10.375 C-26.8265879 7.73641361 -25.88587124 6.32594084 -23 5 C-20.23041021 5.06379094 -17.74292311 5.49713076 -15 6 C-15.33 4.35 -15.66 2.7 -16 1 C-15.34 1.33 -14.68 1.66 -14 2 C-14 2.66 -14 3.32 -14 4 C-12.4840625 3.01 -12.4840625 3.01 -10.9375 2 C-7.21937109 -0.15499716 -4.31084509 -0.35190572 0 0 Z " fill="#FA7BAA" transform="translate(218,178)"/>
<path d="M0 0 C2.62895146 3.94342719 3.05927998 7.36359419 4 12 C9.445 12.495 9.445 12.495 15 13 C13.01482414 25.23246457 10.34908574 36.07327829 5 47.3125 C4.57275635 48.21363525 4.1455127 49.11477051 3.70532227 50.04321289 C-0.32466832 58.2126161 -0.32466832 58.2126161 -4 61 C-6.75 61.25 -6.75 61.25 -9 61 C-11.58620583 56.08517857 -11.33156408 51.22288689 -11.3125 45.8125 C-11.32861328 44.91724609 -11.34472656 44.02199219 -11.36132812 43.09960938 C-11.3654774 37.35286455 -10.52716173 32.53369669 -8.64526367 27.1003418 C-7.853164 24.88825116 -7.853164 24.88825116 -8 22 C-12.95 22.495 -12.95 22.495 -18 23 C-18 22.01 -18 21.02 -18 20 C-17.34 20 -16.68 20 -16 20 C-16 19.34 -16 18.68 -16 18 C-16.66 18 -17.32 18 -18 18 C-17.67 16.68 -17.34 15.36 -17 14 C-15.68 14 -14.36 14 -13 14 C-13.515625 13.649375 -14.03125 13.29875 -14.5625 12.9375 C-16 11 -16 11 -16.0625 7.625 C-15.00070082 4.00239104 -13.95605296 2.07436917 -10.890625 -0.1875 C-7.33714877 -1.71461375 -3.59399992 -1.26508797 0 0 Z " fill="#FCEFF7" transform="translate(294,157)"/>
<path d="M0 0 C0.10054687 0.65226562 0.20109375 1.30453125 0.3046875 1.9765625 C1.1855913 6.06733492 1.86191915 9.06587629 5.1796875 11.7890625 C7.75733831 13.25417101 10.37355757 14.62481553 13 16 C19.2506309 20.12709603 22.08113513 25.19379896 25 32 C26.32 30.35 27.64 28.7 29 27 C28.95875 28.11375 28.9175 29.2275 28.875 30.375 C28.58878141 34.04366025 28.58878141 34.04366025 31 36 C25.47374425 43.97562185 19.79190565 50.7158461 10 53 C6.50356543 53.59261603 3.38138419 53.80905365 0.19921875 51.9453125 C-1.98946155 50.17974223 -3.73425544 48.53148912 -5 46 C-5.13415472 43.3276379 -5.04318541 40.67749512 -5 38 C-4.34 38 -3.68 38 -3 38 C-2.01 39.98 -1.02 41.96 0 44 C1.65 44 3.3 44 5 44 C8.12427106 38.92305953 8.83068952 34.80493746 8 29 C6.24122069 21.9249105 1.44247868 18.72341883 -4.44140625 14.859375 C-6.92294589 13.05599658 -8.43866885 11.62283021 -10 9 C-10.36363016 5.54551351 -10.58874122 3.10821876 -8.9375 0 C-5.86664787 -1.58495594 -3.27813225 -0.68036707 0 0 Z " fill="#F97AA9" transform="translate(167,285)"/>
<path d="M0 0 C3.90727193 0.9431346 5.7675406 2.10158352 8.625 4.875 C10.53432788 8.69365576 10.19277791 12.72242824 9.625 16.875 C5.45593537 29.00029485 -3.64405186 39.02352782 -14.375 45.875 C-15.035 45.875 -15.695 45.875 -16.375 45.875 C-15.17118552 43.38138429 -13.92071278 41.19356917 -12.375 38.875 C-13.365 38.875 -14.355 38.875 -15.375 38.875 C-15.45704828 37.48017921 -15.51466204 36.08391272 -15.5625 34.6875 C-15.59730469 33.91019531 -15.63210937 33.13289063 -15.66796875 32.33203125 C-15.29534654 29.20697296 -14.08244911 27.51236419 -12.375 24.875 C-11.19024664 22.54857521 -10.02225292 20.21960422 -8.875 17.875 C-6.86632985 13.76994485 -4.78892591 9.76083195 -2.375 5.875 C4.5 6.75 4.5 6.75 5.625 7.875 C5.625 6.885 5.625 5.895 5.625 4.875 C4.635 4.545 3.645 4.215 2.625 3.875 C2.625 3.215 2.625 2.555 2.625 1.875 C-0.345 1.875 -3.315 1.875 -6.375 1.875 C-3.375 -0.125 -3.375 -0.125 0 0 Z " fill="#F67EAB" transform="translate(262.375,143.125)"/>
<path d="M0 0 C2.61854734 1.79798873 3.34165855 3.11127618 5 6 C6.209244 13.12110354 3.16226707 18.91301872 -0.8359375 24.62109375 C-4.50130157 29.34674513 -8.21515253 33.4113644 -13 37 C-13.33 35.68 -13.66 34.36 -14 33 C-15.32 33 -16.64 33 -18 33 C-17.33922623 23.30865133 -12.41031301 14.49393616 -8 6 C-7.01 6 -6.02 6 -5 6 C-5 4.35 -5 2.7 -5 1 C-6.32 1 -7.64 1 -9 1 C-9.33 1.99 -9.66 2.98 -10 4 C-12.31 4.33 -14.62 4.66 -17 5 C-11.76743384 -0.60632089 -7.47213651 -2.26025482 0 0 Z " fill="#F581AC" transform="translate(233,256)"/>
<path d="M0 0 C1.875 0.9375 1.875 0.9375 3.125 2.5 C5.83011797 11.29163341 2.69996864 21.55460579 -1.1875 29.5625 C-3.125 32.9375 -3.125 32.9375 -5.125 34.9375 C-7.75 35.0625 -7.75 35.0625 -10.125 34.9375 C-14.20055494 27.64696546 -11.89504627 19.5852437 -9.9765625 11.90234375 C-8.72399255 7.54133187 -7.41188735 4.22438735 -4.1875 1 C-2.125 -0.0625 -2.125 -0.0625 0 0 Z " fill="#FCEAF5" transform="translate(197.125,183.0625)"/>
<path d="M0 0 C2.375 0.4375 2.375 0.4375 4.375 2.4375 C5.54582083 12.19887836 4.49312363 22.92904594 -0.86328125 31.39453125 C-2.125 32.8125 -2.125 32.8125 -4.625 34.4375 C-6.8125 34.5 -6.8125 34.5 -8.625 33.4375 C-11.91342256 28.34574893 -11.16156197 22.24153012 -10.625 16.4375 C-6.91369565 1.15228261 -6.91369565 1.15228261 0 0 Z " fill="#FCEDF6" transform="translate(324.625,295.5625)"/>
<path d="M0 0 C1.32 0 2.64 0 4 0 C4.92959696 9.70912385 2.02702426 16.45841265 -4 24 C-6.3879646 26.62923563 -8.5002913 28.07360652 -12 29 C-11.47024677 18.40493532 -7.61841863 7.61841863 0 0 Z " fill="#FCECF6" transform="translate(260,151)"/>
<path d="M0 0 C1 1 1 1 1.3125 4.8125 C1.27831671 7.99154601 1.15861406 8.78669144 -0.8125 11.4375 C-4.77190119 14.2656437 -8.2438971 14.33972164 -13 14 C-15 12.9375 -15 12.9375 -16 11 C-16.08419496 6.45347228 -15.42534601 4.51041522 -12.5 1 C-8.57595855 -1.92154911 -4.52305502 -1.19979986 0 0 Z " fill="#F77CAA" transform="translate(294,157)"/>
<path d="M0 0 C-0.5533006 11.61931255 -5.55021465 18.30503419 -14 26 C-15.3038563 22.99579308 -14.91949039 21.74061269 -13.92578125 18.5390625 C-13.39963065 17.22964993 -12.86142911 15.92502791 -12.3125 14.625 C-12.05533203 13.97789062 -11.79816406 13.33078125 -11.53320312 12.6640625 C-6.33736297 0 -6.33736297 0 0 0 Z " fill="#FDE9F5" transform="translate(230,263)"/>
<path d="M0 0 C0.33 0 0.66 0 1 0 C1.04898437 0.83144531 1.09796875 1.66289062 1.1484375 2.51953125 C1.22320312 3.60621094 1.29796875 4.69289063 1.375 5.8125 C1.44460938 6.89144531 1.51421875 7.97039062 1.5859375 9.08203125 C1.81195733 12.18626186 1.81195733 12.18626186 4 15 C6.87866256 15.13478935 6.87866256 15.13478935 10 14 C11.34431961 12.07831235 12.23231329 10.16704472 13.140625 8.0078125 C14 6 14 6 16 3 C15.05882353 11.15686275 15.05882353 11.15686275 13 14 C11.989375 14.66 10.97875 15.32 9.9375 16 C6.88208269 17.67443022 6.88208269 17.67443022 6.125 20.25 C6.08375 20.8275 6.0425 21.405 6 22 C6.33 21.67 6.66 21.34 7 21 C9.32817964 20.63239269 11.6618385 20.29758419 14 20 C11.03216214 23.10273958 9.76204576 23.94833588 5.3125 24.25 C0.92495354 24.21791557 -2.10314993 22.94842503 -6 21 C-2.79937313 19.39968656 -0.27728194 20.96826309 3 22 C2.65772428 19.02934491 2.65772428 19.02934491 2 16 C1.34 15.67 0.68 15.34 0 15 C0 10.05 0 5.1 0 0 Z " fill="#F18AB1" transform="translate(265,314)"/>
<path d="M0 0 C0.33 0 0.66 0 1 0 C1 2.31 1 4.62 1 7 C0.01 7.33 -0.98 7.66 -2 8 C-1.67 9.32 -1.34 10.64 -1 12 C-1.99 12.66 -2.98 13.32 -4 14 C-3.71125 14.845625 -3.4225 15.69125 -3.125 16.5625 C-2.963061 21.01582261 -4.3722696 22.30096204 -7.26171875 25.484375 C-11.36953709 29.06602335 -14.61294443 29.20719445 -20 29 C-18.68 28.67 -17.36 28.34 -16 28 C-16 27.01 -16 26.02 -16 25 C-15.34 25 -14.68 25 -14 25 C-14 25.66 -14 26.32 -14 27 C-13.34 27 -12.68 27 -12 27 C-11.67 26.01 -11.34 25.02 -11 24 C-8.9375 22.8125 -8.9375 22.8125 -7 22 C-7.33 21.34 -7.66 20.68 -8 20 C-9.65 20.99 -11.3 21.98 -13 23 C-13.66 22.34 -14.32 21.68 -15 21 C-14.09894531 20.67128906 -13.19789063 20.34257812 -12.26953125 20.00390625 C-7.93955785 17.35005159 -6.71595086 14.46250576 -4.6875 9.9375 C-4.34138672 9.20466797 -3.99527344 8.47183594 -3.63867188 7.71679688 C-2.74425679 5.81812627 -1.87067764 3.90967245 -1 2 C-0.67 1.34 -0.34 0.68 0 0 Z " fill="#F284AD" transform="translate(230,197)"/>
<path d="M0 0 C2.17578125 0.890625 2.17578125 0.890625 3.6875 1.75 C3.6875 2.08 3.6875 2.41 3.6875 2.75 C2.511875 2.976875 1.33625 3.20375 0.125 3.4375 C-9.02704567 5.8060752 -13.49500454 11.93269207 -18.3125 19.75 C-18.99968017 21.07287779 -19.67461408 22.40266048 -20.3125 23.75 C-20.6425 23.75 -20.9725 23.75 -21.3125 23.75 C-21.66391841 17.775887 -20.86329775 14.75351837 -16.99194336 10.19506836 C-6.24216561 -1.4786688 -6.24216561 -1.4786688 0 0 Z " fill="#FDD9EE" transform="translate(233.3125,285.25)"/>
<path d="M0 0 C0.66 0 1.32 0 2 0 C1.98952637 0.72590332 1.97905273 1.45180664 1.96826172 2.19970703 C1.9265304 5.50810241 1.90061936 8.81644224 1.875 12.125 C1.85824219 13.26710937 1.84148437 14.40921875 1.82421875 15.5859375 C1.81777344 16.69453125 1.81132812 17.803125 1.8046875 18.9453125 C1.79421387 19.96125488 1.78374023 20.97719727 1.77294922 22.02392578 C2.02158182 25.28288429 2.85121636 27.95115207 4 31 C8.02992782 30.44687265 12.02022924 29.8441938 16 29 C14.56511188 34.02210841 12.13399097 36.04714931 8 39 C7.01 39 6.02 39 5 39 C5 38.34 5 37.68 5 37 C6.32 37 7.64 37 9 37 C9 36.01 9 35.02 9 34 C7.8553125 34.1546875 7.8553125 34.1546875 6.6875 34.3125 C5.800625 34.209375 4.91375 34.10625 4 34 C0.58257313 29.48411449 -0.1247202 25.5676417 -0.09765625 20.01953125 C-0.09443359 18.85615234 -0.09121094 17.69277344 -0.08789062 16.49414062 C-0.07951172 15.27919922 -0.07113281 14.06425781 -0.0625 12.8125 C-0.05798828 11.58595703 -0.05347656 10.35941406 -0.04882812 9.09570312 C-0.03703065 6.06375332 -0.02056921 3.03190094 0 0 Z " fill="#F083AC" transform="translate(317,186)"/>
<path d="M0 0 C0.99 0.33 1.98 0.66 3 1 C4.1875 3.5625 4.1875 3.5625 5 6 C6.98 6 8.96 6 11 6 C11 6.99 11 7.98 11 9 C9.02 9.33 7.04 9.66 5 10 C7.06756277 12.7972908 8.14440371 13.02692273 11.6875 13.6875 C12.780625 13.790625 13.87375 13.89375 15 14 C15 14.33 15 14.66 15 15 C7.23214286 15.66964286 7.23214286 15.66964286 3.5625 12.6875 C-0.3641674 8.56928785 -0.10373439 5.49792264 0 0 Z " fill="#F186AC" transform="translate(137,211)"/>
<path d="M0 0 C0.66 0.66 1.32 1.32 2 2 C1.9375 4 1.9375 4 1 6 C-0.66072849 6.68132451 -2.327767 7.34742127 -4 8 C-5.20882096 10.00016466 -5.20882096 10.00016466 -6 12 C-6.99 12.495 -6.99 12.495 -8 13 C-8.66 12.34 -9.32 11.68 -10 11 C-8.68 10.67 -7.36 10.34 -6 10 C-6 9.01 -6 8.02 -6 7 C-5.01 6.34 -4.02 5.68 -3 5 C-3 4.34 -3 3.68 -3 3 C-4.32 2.67 -5.64 2.34 -7 2 C-7 2.66 -7 3.32 -7 4 C-13.625 7 -13.625 7 -17 7 C-11.58234243 2.21230261 -7.56502399 -0.67244658 0 0 Z " fill="#EF88AF" transform="translate(279,287)"/>
<path d="M0 0 C0.33 1.32 0.66 2.64 1 4 C1.99 3.01 2.98 2.02 4 1 C4.66 1.33 5.32 1.66 6 2 C4.1875 4 4.1875 4 2 6 C1.01 6 0.02 6 -1 6 C-1.33 5.34 -1.66 4.68 -2 4 C-2.99 4.33 -3.98 4.66 -5 5 C-5.825 4.79375 -6.65 4.5875 -7.5 4.375 C-8.325 4.25125 -9.15 4.1275 -10 4 C-11.8354799 5.33378575 -11.8354799 5.33378575 -13 7 C-13 6.01 -13 5.02 -13 4 C-8.20850235 -0.28712948 -6.28922975 -1.23050147 0 0 Z " fill="#F87FAC" transform="translate(316,288)"/>
<path d="M0 0 C0.33 0.66 0.66 1.32 1 2 C-1.17508418 6.69360269 -1.17508418 6.69360269 -4.1875 7.8125 C-4.785625 7.874375 -5.38375 7.93625 -6 8 C-5.34 9.32 -4.68 10.64 -4 12 C-1.36 12 1.28 12 4 12 C4 12.33 4 12.66 4 13 C-1.31243725 13.48100538 -5.61499374 13.78293046 -10.125 10.625 C-11.07375 9.75875 -12.0225 8.8925 -13 8 C-13 7.34 -13 6.68 -13 6 C-11.68 6.33 -10.36 6.66 -9 7 C-8.67 5.68 -8.34 4.36 -8 3 C-7.13375 3.37125 -7.13375 3.37125 -6.25 3.75 C-5.5075 3.8325 -4.765 3.915 -4 4 C-1.72855926 2.14567913 -1.72855926 2.14567913 0 0 Z " fill="#F38AB2" transform="translate(324,325)"/>
<path d="M0 0 C4.95 0 9.9 0 15 0 C13.02 0.99 13.02 0.99 11 2 C11 2.99 11 3.98 11 5 C7.7 5 4.4 5 1 5 C0.67 3.35 0.34 1.7 0 0 Z " fill="#F17FAA" transform="translate(297,165)"/>
<path d="M0 0 C0.66 0 1.32 0 2 0 C2.33 7.92 2.66 15.84 3 24 C2.34 24 1.68 24 1 24 C-2.24183886 16.09801778 -1.04983541 8.26745385 0 0 Z " fill="#F38BB3" transform="translate(244,190)"/>
<path d="M0 0 C0 0.33 0 0.66 0 1 C-2.64 1.33 -5.28 1.66 -8 2 C-8.33 3.32 -8.66 4.64 -9 6 C-7.68 6.66 -6.36 7.32 -5 8 C-7 9 -7 9 -9.375 8.6875 C-10.24125 8.790625 -11.1075 8.89375 -12 9 C-14.35322796 11.90412546 -14.35322796 11.90412546 -16 15 C-17.125 11.25 -17.125 11.25 -16 9 C-15.34 9 -14.68 9 -14 9 C-13.67 7.68 -13.34 6.36 -13 5 C-12.34 5 -11.68 5 -11 5 C-11.33 3.35 -11.66 1.7 -12 0 C-7.91556885 -1.53166168 -4.20544343 -0.63081652 0 0 Z " fill="#F387B1" transform="translate(334,288)"/>
<path d="M0 0 C0.33 0 0.66 0 1 0 C0.88641524 2.95918198 0.75966914 5.91676783 0.625 8.875 C0.57859375 10.13763672 0.57859375 10.13763672 0.53125 11.42578125 C0.47324219 12.63427734 0.47324219 12.63427734 0.4140625 13.8671875 C0.3826416 14.61081543 0.3512207 15.35444336 0.31884766 16.12060547 C0 18 0 18 -2 20 C-4.5 19.875 -4.5 19.875 -7 19 C-8.3125 16.9375 -8.3125 16.9375 -9 15 C-8.34 15 -7.68 15 -7 15 C-6.67 15.33 -6.34 15.66 -6 16 C-5.01 15.67 -4.02 15.34 -3 15 C-2.34 15 -1.68 15 -1 15 C-1.01160156 14.00097656 -1.02320313 13.00195312 -1.03515625 11.97265625 C-1.04417969 10.68230469 -1.05320312 9.39195312 -1.0625 8.0625 C-1.07410156 6.77472656 -1.08570313 5.48695313 -1.09765625 4.16015625 C-1 1 -1 1 0 0 Z " fill="#EE85AC" transform="translate(306,340)"/>
<path d="M0 0 C1.09658936 3.28976808 0.79953138 4.71303767 0 8 C1.32 7.34 2.64 6.68 4 6 C4 7.32 4 8.64 4 10 C4.66 10 5.32 10 6 10 C6 10.99 6 11.98 6 13 C0.74285714 17 0.74285714 17 -2 17 C-0.79618552 14.50638429 0.45428722 12.31856917 2 10 C1.01 10 0.02 10 -1 10 C-1.02689216 8.52093108 -1.04634621 7.04172517 -1.0625 5.5625 C-1.07410156 4.73878906 -1.08570313 3.91507813 -1.09765625 3.06640625 C-1 1 -1 1 0 0 Z " fill="#F285AF" transform="translate(248,172)"/>
<path d="M0 0 C1.62490954 -0.02698189 3.24994633 -0.04638757 4.875 -0.0625 C5.77992188 -0.07410156 6.68484375 -0.08570313 7.6171875 -0.09765625 C10 0 10 0 12 1 C12.85156732 3.81775155 13.47363693 6.66024146 14.12109375 9.53125 C14.41113281 10.3459375 14.70117188 11.160625 15 12 C15.99 12.33 16.98 12.66 18 13 C17.67 13.66 17.34 14.32 17 15 C14.625 14.125 14.625 14.125 12 12 C10.94753553 8.71567619 10.42949815 5.41675391 10 2 C7.03 2 4.06 2 1 2 C0.67 2.66 0.34 3.32 0 4 C-0.33 3.34 -0.66 2.68 -1 2 C-0.67 1.34 -0.34 0.68 0 0 Z " fill="#FEDEEF" transform="translate(157,283)"/>
<path d="M0 0 C1.32 0.99 2.64 1.98 4 3 C3.0300708 8.74300186 2.01102228 13.54330857 -2 18 C-5.25 18.875 -5.25 18.875 -8 19 C-7.360625 18.608125 -6.72125 18.21625 -6.0625 17.8125 C-3.56221181 15.61527704 -3.35049575 14.24208567 -3 11 C-2.01 10.67 -1.02 10.34 0 10 C0.93786082 4.94990405 0.93786082 4.94990405 0 0 Z " fill="#FEDEEF" transform="translate(277,311)"/>
<path d="M0 0 C0.33 0.99 0.66 1.98 1 3 C0.07264699 4.78601319 -0.86126366 6.56886528 -1.82421875 8.3359375 C-3.5984841 12.35603374 -4.51943103 16.60879554 -5.4284668 20.89550781 C-6.55090199 25.69454731 -6.55090199 25.69454731 -9.125 27.4453125 C-9.74375 27.62835938 -10.3625 27.81140625 -11 28 C-10.67386719 27.17757812 -10.34773438 26.35515625 -10.01171875 25.5078125 C-7.93995009 20.21532972 -5.92088513 14.97259868 -4.375 9.5 C-3.36532323 5.95747694 -2.13335577 3.0476511 0 0 Z " fill="#EE88AF" transform="translate(338,187)"/>
<path d="M0 0 C2.475 0.99 2.475 0.99 5 2 C4.6684371 5.0945871 3.97117406 6.02804686 1.6875 8.25 C-1 10 -1 10 -5 10 C-5 8.02 -5 6.04 -5 4 C-4.34 4 -3.68 4 -3 4 C-3 5.32 -3 6.64 -3 8 C-2.01 8 -1.02 8 0 8 C0 5.36 0 2.72 0 0 Z " fill="#FEE6F5" transform="translate(374,187)"/>
<path d="M0 0 C0.66 0 1.32 0 2 0 C2.99 1.98 3.98 3.96 5 6 C8.62885324 6.15149298 8.62885324 6.15149298 12 5 C11.67 6.32 11.34 7.64 11 9 C8.36 8.67 5.72 8.34 3 8 C2.67 8.99 2.34 9.98 2 11 C-0.67927341 6.98108988 -0.15601248 4.75838077 0 0 Z " fill="#EF84AC" transform="translate(162,323)"/>
<path d="M0 0 C1.49403054 2.98806107 2.79310745 5.89656201 4 9 C2.33333333 9 0.66666667 9 -1 9 C-1.33 8.34 -1.66 7.68 -2 7 C-3.32 7.99 -4.64 8.98 -6 10 C-6.66 9.67 -7.32 9.34 -8 9 C-5.36 6.03 -2.72 3.06 0 0 Z " fill="#FEDDEE" transform="translate(171,211)"/>
<path d="M0 0 C1.32 0.33 2.64 0.66 4 1 C3.25 8.75 3.25 8.75 1 11 C1 9.02 1 7.04 1 5 C0.54625 5.45375 0.0925 5.9075 -0.375 6.375 C-2.1875 8.1875 -2.1875 8.1875 -4 10 C-3.43454163 6.04179141 -2.19097652 3.3340947 0 0 Z " fill="#EF85AC" transform="translate(357,298)"/>
<path d="M0 0 C2.25742383 0.54106508 4.28835177 1.18958596 6.3984375 2.15234375 C6.3984375 2.48234375 6.3984375 2.81234375 6.3984375 3.15234375 C5.2228125 3.37921875 4.0471875 3.60609375 2.8359375 3.83984375 C-0.48283381 4.64011485 -2.71187973 5.76124162 -5.4140625 7.83984375 C-6.4659375 8.60296875 -7.5178125 9.36609375 -8.6015625 10.15234375 C-9.5915625 9.82234375 -10.5815625 9.49234375 -11.6015625 9.15234375 C-4.39349075 0.25727649 -4.39349075 0.25727649 0 0 Z " fill="#FEE2F5" transform="translate(230.6015625,284.84765625)"/>
<path d="M0 0 C0.33 0.99 0.66 1.98 1 3 C2.65 2.67 4.3 2.34 6 2 C4.50902342 5.7952131 2.24299151 7.61042731 -1 10 C-1.103125 9.360625 -1.20625 8.72125 -1.3125 8.0625 C-1.539375 7.381875 -1.76625 6.70125 -2 6 C-2.99 5.67 -3.98 5.34 -5 5 C-3.35 3.35 -1.7 1.7 0 0 Z " fill="#F286AE" transform="translate(221,283)"/>
<path d="M0 0 C2.5654594 2.5654594 2.54046087 4.47686668 3 8 C1.68 7.34 0.36 6.68 -1 6 C-1.61875 7.3921875 -1.61875 7.3921875 -2.25 8.8125 C-3.93441786 11.88054681 -5.08454083 13.19040465 -8 15 C-8.66 14.67 -9.32 14.34 -10 14 C-9.52949219 13.40832031 -9.05898437 12.81664062 -8.57421875 12.20703125 C-3.9441876 6.33987937 -3.9441876 6.33987937 0 0 Z " fill="#FEDEF1" transform="translate(232,208)"/>
<path d="M0 0 C0.66 0.33 1.32 0.66 2 1 C1.31164062 1.80050781 1.31164062 1.80050781 0.609375 2.6171875 C-3.91707576 8.113592 -6.64816581 13.31118127 -9 20 C-9.33 20.66 -9.66 21.32 -10 22 C-10.66 22 -11.32 22 -12 22 C-6.79188341 4.47024174 -6.79188341 4.47024174 0 0 Z " fill="#EF88AF" transform="translate(277,179)"/>
<path d="M0 0 C0.33 0 0.66 0 1 0 C1.08133791 1.91595968 1.13934367 3.83291932 1.1875 5.75 C1.22230469 6.81734375 1.25710937 7.8846875 1.29296875 8.984375 C0.9655216 12.3548977 0.37096533 13.62903467 -2 16 C-5.1875 17.25 -5.1875 17.25 -8 18 C-8.33 16.68 -8.66 15.36 -9 14 C-7.02 14 -5.04 14 -3 14 C-2.01 9.38 -1.02 4.76 0 0 Z " fill="#FEDFF1" transform="translate(214,323)"/>
<path d="M0 0 C0.99 0.99 1.98 1.98 3 3 C2.67 3.66 2.34 4.32 2 5 C1.34 5 0.68 5 0 5 C0.01160156 5.92683594 0.02320313 6.85367187 0.03515625 7.80859375 C0.04417969 9.00613281 0.05320312 10.20367187 0.0625 11.4375 C0.07410156 12.63246094 0.08570313 13.82742188 0.09765625 15.05859375 C0 18 0 18 -1 19 C-1.36760731 21.32817964 -1.70241581 23.6618385 -2 26 C-2.33 26 -2.66 26 -3 26 C-3.34617156 17.51879678 -2.69213866 8.07641598 0 0 Z " fill="#FDDBF0" transform="translate(309,330)"/>
<path d="M0 0 C0 3.3 0 6.6 0 10 C-1.65 10.33 -3.3 10.66 -5 11 C-4.91291331 9.54054712 -4.80473093 8.08234132 -4.6875 6.625 C-4.62949219 5.81289063 -4.57148438 5.00078125 -4.51171875 4.1640625 C-3.93288652 1.71617658 -2.91559758 0 0 0 Z " fill="#FD76A8" transform="translate(235,263)"/>
<path d="M0 0 C0.33 0 0.66 0 1 0 C1.04241723 2.33294775 1.04092937 4.66702567 1 7 C0.67 7.33 0.34 7.66 0 8 C-0.49769292 11.3254936 -0.90161069 14.65788488 -1.3046875 17.99609375 C-2 21 -2 21 -5 23 C-4.54742618 20.29059138 -4.08814292 17.58260474 -3.625 14.875 C-3.49867188 14.11445313 -3.37234375 13.35390625 -3.2421875 12.5703125 C-2.49243489 8.22174738 -1.52800112 4.15882045 0 0 Z " fill="#EE84AC" transform="translate(236,174)"/>
<path d="M0 0 C1.43855399 2.87710797 0.51562175 4.4894226 -0.3125 7.5625 C-1.32984351 11.40528389 -2.27684776 15.22841835 -3.0625 19.125 C-4 23 -4 23 -6 25 C-6 22.44009047 -5.77056473 20.27706777 -5.34375 17.76953125 C-5.20839844 16.96708984 -5.07304687 16.16464844 -4.93359375 15.33789062 C-4.79050781 14.50451172 -4.64742187 13.67113281 -4.5 12.8125 C-4.35691406 11.96751953 -4.21382812 11.12253906 -4.06640625 10.25195312 C-3.7131255 8.16759672 -3.35684987 6.08374832 -3 4 C-2.34 4 -1.68 4 -1 4 C-0.67 2.68 -0.34 1.36 0 0 Z " fill="#FED9ED" transform="translate(236,172)"/>
<path d="M0 0 C0.66 0.33 1.32 0.66 2 1 C0.68 3.97 -0.64 6.94 -2 10 C-6.62 10 -11.24 10 -16 10 C-16 9.67 -16 9.34 -16 9 C-12.7 9 -9.4 9 -6 9 C-5.67 8.01 -5.34 7.02 -5 6 C-4.02149805 4.97895449 -3.02019573 3.9793879 -2 3 C-1.34 2.01 -0.68 1.02 0 0 Z " fill="#FED6EC" transform="translate(314,155)"/>
<path d="M0 0 C0.33 0 0.66 0 1 0 C2.0735426 11.17847534 2.0735426 11.17847534 -0.55859375 15.64453125 C-2.28507271 17.57249065 -4.02365271 19.33119655 -6 21 C-6.66 20.67 -7.32 20.34 -8 20 C-7.59007812 19.47792969 -7.18015625 18.95585937 -6.7578125 18.41796875 C-2.39728741 12.46136629 -0.79197466 7.30528352 0 0 Z " fill="#F18CB2" transform="translate(264,153)"/>
<path d="M0 0 C0.96661363 3.12180401 0.98988909 5.52083795 0.5625 8.75 C0.40974609 9.94882812 0.40974609 9.94882812 0.25390625 11.171875 C0.12822266 12.07679688 0.12822266 12.07679688 0 13 C1.65 12.34 3.3 11.68 5 11 C3.75 13 3.75 13 2 15 C0.68 15 -0.64 15 -2 15 C-2.19392201 9.47322267 -1.7479503 5.24385089 0 0 Z " fill="#FDD6EC" transform="translate(239,315)"/>
<path d="M0 0 C0.33 0 0.66 0 1 0 C1.19551338 1.60320974 1.38111983 3.20762986 1.5625 4.8125 C1.66691406 5.70582031 1.77132813 6.59914062 1.87890625 7.51953125 C2 10 2 10 1 13 C1.66 13.33 2.32 13.66 3 14 C1.0625 13.6875 1.0625 13.6875 -1 13 C-1.33 12.01 -1.66 11.02 -2 10 C-3.65 10.33 -5.3 10.66 -7 11 C-5.824375 10.2265625 -5.824375 10.2265625 -4.625 9.4375 C-1.44405752 6.4837677 -0.88506307 4.18393452 0 0 Z " fill="#FCDFEF" transform="translate(295,160)"/>
<path d="M0 0 C1.18142578 0.13148438 1.18142578 0.13148438 2.38671875 0.265625 C3.33998047 0.50539062 3.33998047 0.50539062 4.3125 0.75 C4.6425 1.41 4.9725 2.07 5.3125 2.75 C2.0125 2.42 -1.2875 2.09 -4.6875 1.75 C-5.0175 2.74 -5.3475 3.73 -5.6875 4.75 C-7.9975 5.08 -10.3075 5.41 -12.6875 5.75 C-8.7166319 1.49549847 -5.94882866 -0.74729087 0 0 Z " fill="#F091B5" transform="translate(228.6875,255.25)"/>
<path d="M0 0 C0.33 0 0.66 0 1 0 C1 1.65 1 3.3 1 5 C1.99 5 2.98 5 4 5 C4.33 3.68 4.66 2.36 5 1 C6.32 0.67 7.64 0.34 9 0 C6.70401984 3.68996811 4.77207256 6.73675646 1 9 C0.34 9 -0.32 9 -1 9 C-0.67 6.03 -0.34 3.06 0 0 Z " fill="#FEDDF0" transform="translate(249,171)"/>
<path d="M0 0 C0.66 0 1.32 0 2 0 C2.33 2.31 2.66 4.62 3 7 C2.443125 7.12375 1.88625 7.2475 1.3125 7.375 C-1.22112231 8.05976279 -3.57178495 9.00938491 -6 10 C-5.05065487 8.32819726 -4.09026687 6.66266064 -3.125 5 C-2.59132813 4.071875 -2.05765625 3.14375 -1.5078125 2.1875 C-1.01023437 1.465625 -0.51265625 0.74375 0 0 Z " fill="#FEDCEF" transform="translate(303,208)"/>
<path d="M0 0 C0.66 0 1.32 0 2 0 C4.01236551 3.66003048 6.0098612 7.32784034 8 11 C8.54527344 11.98806641 8.54527344 11.98806641 9.1015625 12.99609375 C9.79698641 14.29920117 10.40978875 15.64598595 11 17 C10.67 17.66 10.34 18.32 10 19 C8.70425129 16.77312024 7.41332692 14.54366825 6.125 12.3125 C5.76019531 11.68666016 5.39539063 11.06082031 5.01953125 10.41601562 C3.06258803 7.01805058 1.34392261 3.69932381 0 0 Z " fill="#EE86AC" transform="translate(349,150)"/>
<path d="M0 0 C0.9075 0.226875 1.815 0.45375 2.75 0.6875 C3.08 2.0075 3.41 3.3275 3.75 4.6875 C4.74 3.6975 5.73 2.7075 6.75 1.6875 C7.41 2.0175 8.07 2.3475 8.75 2.6875 C6.9375 4.6875 6.9375 4.6875 4.75 6.6875 C3.76 6.6875 2.77 6.6875 1.75 6.6875 C1.75 5.0375 1.75 3.3875 1.75 1.6875 C-2.705 2.1825 -2.705 2.1825 -7.25 2.6875 C-4.61280971 0.1517401 -3.74095095 -0.35970682 0 0 Z " fill="#EE8BB1" transform="translate(313.25,287.3125)"/>
<path d="M0 0 C0.66 0 1.32 0 2 0 C2.625 1.875 2.625 1.875 3 4 C1 6 1 6 -2.9140625 6.1953125 C-4.48449351 6.18200376 -6.05486221 6.15813602 -7.625 6.125 C-8.42679687 6.11597656 -9.22859375 6.10695312 -10.0546875 6.09765625 C-12.03658523 6.07406223 -14.01832981 6.03819065 -16 6 C-16 5.67 -16 5.34 -16 5 C-8.08 4.505 -8.08 4.505 0 4 C0 2.68 0 1.36 0 0 Z " fill="#FED0E5" transform="translate(338,165)"/>
<path d="M0 0 C2.4375 0.75 2.4375 0.75 5 2 C5.66015625 4.078125 5.66015625 4.078125 6 6 C4.39402675 5.54803755 2.79027492 5.08817673 1.1875 4.625 C0.29417969 4.36976563 -0.59914062 4.11453125 -1.51953125 3.8515625 C-4 3 -4 3 -7 1 C-4.69 1.33 -2.38 1.66 0 2 C0 1.34 0 0.68 0 0 Z " fill="#F074A3" transform="translate(207,386)"/>
<path d="M0 0 C-12.11069559 4.93044129 -12.11069559 4.93044129 -16 6 C-16.66 5.67 -17.32 5.34 -18 5 C-16.23002526 4.18563132 -14.45898848 3.3735706 -12.6875 2.5625 C-11.70136719 2.11003906 -10.71523438 1.65757812 -9.69921875 1.19140625 C-5.91942643 -0.4769536 -3.94996412 -1.22585093 0 0 Z " fill="#EF8BB0" transform="translate(298,376)"/>
<path d="M0 0 C0.33 0 0.66 0 1 0 C1.06058594 1.09699219 1.12117188 2.19398438 1.18359375 3.32421875 C1.26804498 4.77865654 1.35269066 6.23308305 1.4375 7.6875 C1.47681641 8.40873047 1.51613281 9.12996094 1.55664062 9.87304688 C1.78185678 13.66707282 2.12839305 17.28651492 3 21 C1.68 20.34 0.36 19.68 -1 19 C-0.67 12.73 -0.34 6.46 0 0 Z " fill="#F099BA" transform="translate(282,197)"/>
<path d="M0 0 C1.65 0 3.3 0 5 0 C5 1.98 5 3.96 5 6 C6.65 6 8.3 6 10 6 C9.67 6.66 9.34 7.32 9 8 C7.35 8 5.7 8 4 8 C2.68 5.36 1.36 2.72 0 0 Z " fill="#FEE0F1" transform="translate(138,210)"/>
<path d="M0 0 C0 3.30941204 -0.40339294 5.11090151 -2 8 C-4.375 8.6875 -4.375 8.6875 -7 9 C-9.23408113 9.99083967 -9.23408113 9.99083967 -11 11 C-7.81316569 6.66590534 -4.13621084 3.3810038 0 0 Z " fill="#EB7AA3" transform="translate(120,172)"/>
<path d="M0 0 C2.6875795 5.00093907 4.32126888 10.37630417 3.625 16.0625 C3.41875 16.701875 3.2125 17.34125 3 18 C2.67 18 2.34 18 2 18 C0.77100654 11.93184478 -0.27560214 6.20104812 0 0 Z " fill="#EA7AA3" transform="translate(95,220)"/>
<path d="M0 0 C0 0.66 0 1.32 0 2 C-4.76052962 3.97387813 -7.96488101 4.0070238 -13 3 C-13 2.67 -13 2.34 -13 2 C-11.58461283 1.66127487 -10.16762037 1.32925376 -8.75 1 C-7.56664062 0.7215625 -7.56664062 0.7215625 -6.359375 0.4375 C-4 0 -4 0 0 0 Z " fill="#F089B0" transform="translate(330,369)"/>
<path d="M0 0 C0.33 1.32 0.66 2.64 1 4 C-0.06893218 5.03590338 -1.15578488 6.05333942 -2.25 7.0625 C-3.15492188 7.91521484 -3.15492188 7.91521484 -4.078125 8.78515625 C-6 10 -6 10 -8.234375 9.68359375 C-8.81703125 9.45800781 -9.3996875 9.23242188 -10 9 C-8.63875 8.1646875 -8.63875 8.1646875 -7.25 7.3125 C-4.15546609 5.1106201 -2.20718532 3.05610275 0 0 Z " fill="#FEDFEF" transform="translate(284,328)"/>
<path d="M0 0 C0.99 0.33 1.98 0.66 3 1 C1.68 3.64 0.36 6.28 -1 9 C-3 6 -3 6 -2.75 3.9375 C-2 2 -2 2 0 0 Z " fill="#FEE6F3" transform="translate(299,295)"/>
<path d="M0 0 C0.99 0.66 1.98 1.32 3 2 C2.67 2.99 2.34 3.98 2 5 C0.02 5.33 -1.96 5.66 -4 6 C-2.25 1.125 -2.25 1.125 0 0 Z " fill="#FC78A9" transform="translate(259,215)"/>
<path d="M0 0 C1.32 0.33 2.64 0.66 4 1 C2.60667426 4.36720387 1.0210714 5.9859524 -2 8 C-1.34 5.36 -0.68 2.72 0 0 Z " fill="#FDDDF0" transform="translate(342,317)"/>
<path d="M0 0 C4.78504172 2.48454089 7.86077669 4.47951843 11 9 C7.16713064 8.45244723 5.59901736 6.7666959 3 4 C2.01 3.34 1.02 2.68 0 2 C0 1.34 0 0.68 0 0 Z " fill="#EB8CAF" transform="translate(176,299)"/>
<path d="M0 0 C0.66 0 1.32 0 2 0 C2.66 1.98 3.32 3.96 4 6 C3.4225 5.79375 2.845 5.5875 2.25 5.375 C-0.51967567 4.91338739 -1.64561267 5.57055055 -4 7 C-2.68 4.69 -1.36 2.38 0 0 Z " fill="#FEDBEE" transform="translate(333,215)"/>
<path d="M0 0 C0.66 0 1.32 0 2 0 C0.98823563 3.40320742 0.35156418 4.75725331 -2.625 6.8125 C-3.40875 7.204375 -4.1925 7.59625 -5 8 C-4.67 6.35 -4.34 4.7 -4 3 C-3.01 3.33 -2.02 3.66 -1 4 C-0.67 2.68 -0.34 1.36 0 0 Z " fill="#F084AD" transform="translate(381,195)"/>
<path d="M0 0 C4.23429756 1.31061591 8.07407404 2.94356259 12 5 C8.6699024 6.11003253 8.02156559 5.9343162 4.875 4.75 C4.17117188 4.49734375 3.46734375 4.2446875 2.7421875 3.984375 C1 3 1 3 0 0 Z " fill="#FEDFF0" transform="translate(266,112)"/>
<path d="M0 0 C-1 2 -1 2 -3.21484375 2.8515625 C-4.56255859 3.23441406 -4.56255859 3.23441406 -5.9375 3.625 C-7.28134766 4.01558594 -7.28134766 4.01558594 -8.65234375 4.4140625 C-11 5 -11 5 -13 5 C-13 4.34 -13 3.68 -13 3 C-11.39743892 2.49487756 -9.79288208 1.99608373 -8.1875 1.5 C-7.29417969 1.2215625 -6.40085938 0.943125 -5.48046875 0.65625 C-3 0 -3 0 0 0 Z " fill="#E97AA3" transform="translate(246,94)"/>
<path d="M0 0 C0.99 0.33 1.98 0.66 3 1 C-0.96 4.465 -0.96 4.465 -5 8 C-5.33 7.34 -5.66 6.68 -6 6 C-4 4 -2 2 0 0 Z " fill="#FFE2F3" transform="translate(375,311)"/>
<path d="M0 0 C0.99 0.33 1.98 0.66 3 1 C3.1953125 7.0546875 3.1953125 7.0546875 3 9 C2.34 9.66 1.68 10.32 1 11 C0.67 7.37 0.34 3.74 0 0 Z " fill="#FEE2F4" transform="translate(242,291)"/>
<path d="M0 0 C0.33 0.66 0.66 1.32 1 2 C0.67 2.66 0.34 3.32 0 4 C-3.96 4 -7.92 4 -12 4 C-11.67 3.34 -11.34 2.68 -11 2 C-9.39125 2.061875 -9.39125 2.061875 -7.75 2.125 C-4.34252515 2.0114175 -2.79260369 1.78726636 0 0 Z " fill="#FEE4F3" transform="translate(221,223)"/>
<path d="M0 0 C0.99 0 1.98 0 3 0 C2.67 1.98 2.34 3.96 2 6 C2.66 6.33 3.32 6.66 4 7 C2.35 7.33 0.7 7.66 -1 8 C-0.67 5.36 -0.34 2.72 0 0 Z " fill="#F282AC" transform="translate(370,197)"/>
<path d="M0 0 C0.99 0 1.98 0 3 0 C3 0.66 3 1.32 3 2 C3.66 2 4.32 2 5 2 C5 2.99 5 3.98 5 5 C5.66 5 6.32 5 7 5 C7.33 6.32 7.66 7.64 8 9 C1.42857143 3.85714286 1.42857143 3.85714286 0 0 Z " fill="#EE86AD" transform="translate(360,170)"/>
<path d="M0 0 C1 3 1 3 0.22265625 4.82421875 C-0.8515625 6.54947917 -1.92578125 8.27473958 -3 10 C-3.66 10 -4.32 10 -5 10 C-3.84414715 6.08788267 -2.64465038 3.1254959 0 0 Z " fill="#EF84AB" transform="translate(317,154)"/>
<path d="M0 0 C0.33 0.66 0.66 1.32 1 2 C-1.31 4.97 -3.62 7.94 -6 11 C-6.66 10.01 -7.32 9.02 -8 8 C-6.50260417 6.79557292 -5.00520833 5.59114583 -3.5078125 4.38671875 C-1.74707893 2.87729455 -1.74707893 2.87729455 0 0 Z " fill="#FEDFF1" transform="translate(250,328)"/>
<path d="M0 0 C1.19156292 4.76625167 0.3415946 5.87879351 -2 10 C-2.99 10 -3.98 10 -5 10 C-3.35 6.7 -1.7 3.4 0 0 Z " fill="#EF8FB3" transform="translate(299,202)"/>
<path d="M0 0 C0.33 0.66 0.66 1.32 1 2 C-1.34375 8.5625 -1.34375 8.5625 -5 11 C-3.77472971 6.94718288 -2.30119506 3.55639236 0 0 Z " fill="#FEDBEE" transform="translate(114,197)"/>
<path d="M0 0 C2.97 0 5.94 0 9 0 C8.67 1.32 8.34 2.64 8 4 C5.36 3.01 2.72 2.02 0 1 C0 0.67 0 0.34 0 0 Z " fill="#FAC6E0" transform="translate(300,170)"/>
<path d="M0 0 C1 3 1 3 -0.25 6.125 C-2 9 -2 9 -5 10 C-3.66511872 6.40608886 -2.03977277 3.24509304 0 0 Z " fill="#EF87AE" transform="translate(360,329)"/>
<path d="M0 0 C2.93200474 2.85276137 5.64315404 5.65079784 8 9 C5.50638429 7.79618552 3.31856917 6.54571278 1 5 C0.3125 2.375 0.3125 2.375 0 0 Z " fill="#EE86AB" transform="translate(113,302)"/>
<path d="M0 0 C0.99 0.33 1.98 0.66 3 1 C3 1.66 3 2.32 3 3 C1.68 3 0.36 3 -1 3 C-0.67 2.01 -0.34 1.02 0 0 Z M-4 3 C-3.01 3.33 -2.02 3.66 -1 4 C-1.33 4.99 -1.66 5.98 -2 7 C-2.66 7 -3.32 7 -4 7 C-4 5.68 -4 4.36 -4 3 Z " fill="#FC76A8" transform="translate(226,279)"/>
<path d="M0 0 C1.5 1.1875 1.5 1.1875 3 3 C3.1875 5.6875 3.1875 5.6875 3 8 C0.9375 6.25 0.9375 6.25 -1 4 C-0.75 1.75 -0.75 1.75 0 0 Z " fill="#F283AD" transform="translate(204,216)"/>
<path d="M0 0 C0.6875 1.6875 0.6875 1.6875 1 4 C-0.375 6.625 -0.375 6.625 -2 9 C-2.33 9.66 -2.66 10.32 -3 11 C-3.66 11 -4.32 11 -5 11 C-3.55049545 7.2089881 -1.84827434 3.6125362 0 0 Z " fill="#EA7AA3" transform="translate(137,147)"/>
<path d="M0 0 C0.33 0.66 0.66 1.32 1 2 C2.32 1.67 3.64 1.34 5 1 C3.35 2.98 1.7 4.96 0 7 C-0.93423645 3.98968256 -1.04449911 3.13349732 0 0 Z " fill="#FEDBF0" transform="translate(216,282)"/>
<path d="M0 0 C0.66 0 1.32 0 2 0 C2 1.32 2 2.64 2 4 C3.32 4.33 4.64 4.66 6 5 C4.02 5.33 2.04 5.66 0 6 C0 4.02 0 2.04 0 0 Z " fill="#FED4EB" transform="translate(369,191)"/>
<path d="M0 0 C0.6875 1.6875 0.6875 1.6875 1 4 C-0.3125 6.75 -0.3125 6.75 -2 9 C-2.66 9 -3.32 9 -4 9 C-2.94124926 5.59687262 -1.99097846 2.98646769 0 0 Z " fill="#F18AB1" transform="translate(243,157)"/>
<path d="M0 0 C2.31 0 4.62 0 7 0 C7.33 1.32 7.66 2.64 8 4 C2.25 2.25 2.25 2.25 0 0 Z " fill="#FEE3F3" transform="translate(216,379)"/>
<path d="M0 0 C0.33 0 0.66 0 1 0 C1.33 2.97 1.66 5.94 2 9 C1.01 8.01 0.02 7.02 -1 6 C-1.66 5.67 -2.32 5.34 -3 5 C-2.03114628 3.31503702 -1.03013277 1.64821244 0 0 Z " fill="#FFD8EE" transform="translate(197,321)"/>
<path d="M0 0 C0.66 0 1.32 0 2 0 C1.67 3.3 1.34 6.6 1 10 C0.01 10.33 -0.98 10.66 -2 11 C-1.34 7.37 -0.68 3.74 0 0 Z " fill="#F085AD" transform="translate(215,280)"/>
<path d="M0 0 C0.33 0.66 0.66 1.32 1 2 C0.01 2.99 -0.98 3.98 -2 5 C-2.99 4.67 -3.98 4.34 -5 4 C-5.33 4.66 -5.66 5.32 -6 6 C-6.33 5.01 -6.66 4.02 -7 3 C-4.69 2.01 -2.38 1.02 0 0 Z " fill="#FCDDEE" transform="translate(378,201)"/>
<path d="M0 0 C-3.44833324 2.05257931 -5.31661591 3.0632763 -9.375 2.6875 C-10.24125 2.460625 -11.1075 2.23375 -12 2 C-12 1.67 -12 1.34 -12 1 C-10.37681021 0.63762737 -8.7513642 0.28534843 -7.125 -0.0625 C-6.22007812 -0.25972656 -5.31515625 -0.45695312 -4.3828125 -0.66015625 C-2 -1 -2 -1 0 0 Z " fill="#FED8ED" transform="translate(212,124)"/>
<path d="M0 0 C0.33 0.66 0.66 1.32 1 2 C-2.96 3.98 -2.96 3.98 -7 6 C-7.66 5.34 -8.32 4.68 -9 4 C-6.03 2.68 -3.06 1.36 0 0 Z " fill="#E977A1" transform="translate(231,98)"/>
<path d="M0 0 C0.33 0.66 0.66 1.32 1 2 C4.465 1.505 4.465 1.505 8 1 C4.91190305 2.76462683 3.76687864 3 0 3 C0 2.01 0 1.02 0 0 Z " fill="#401625" transform="translate(111,334)"/>
<path d="M0 0 C2 1 2 1 2 1 Z " fill="#572F42" transform="translate(119,334)"/>
<path d="" fill="#310E21" transform="translate(0,0)"/>
<path d="" fill="#2A081A" transform="translate(0,0)"/>
<path d="" fill="#3B112A" transform="translate(0,0)"/>
<path d="" fill="#421C2F" transform="translate(0,0)"/>
<path d="" fill="#55223B" transform="translate(0,0)"/>
<path d="" fill="#5D2E46" transform="translate(0,0)"/>
</svg>
